HIERARCHY
ROOT Hips
{
	OFFSET 0.00 0.00 0.00
	CHANNELS 6 Xposition Yposition Zposition Zrotation Xrotation Yrotation
		JOINT Spine
		{
			OFFSET 0.00 10.00 0.00
			CHANNELS 3 Zrotation Xrotation Yrotation
			JOINT Spine1
			{
				OFFSET 0.00 10.00 0.00
				CHANNELS 3 Zrotation Xrotation Yrotation
				JOINT Spine2
				{
					OFFSET 0.00 10.00 0.00
					CHANNELS 3 Zrotation Xrotation Yrotation
					JOINT Neck
					{
						OFFSET 0.00 10.00 0.00
						CHANNELS 3 Zrotation Xrotation Yrotation
						JOINT Head
						{
							OFFSET 0.00 10.00 0.00
							CHANNELS 3 Zrotation Xrotation Yrotation
						End Site
						{
							OFFSET 0.00 0.00 0.00
						}
					}
					End Site
					{
						OFFSET 0.00 0.00 0.00
					}
				}
					JOINT LeftArm
					{
						OFFSET 10.00 0.00 0.00
						CHANNELS 3 Zrotation Xrotation Yrotation
						JOINT LeftForeArm
						{
							OFFSET 20.00 0.00 0.00
							CHANNELS 3 Zrotation Xrotation Yrotation
							JOINT LeftHand
							{
								OFFSET 20.00 0.00 0.00
								CHANNELS 3 Zrotation Xrotation Yrotation
							End Site
							{
								OFFSET 0.00 0.00 0.00
							}
						}
						End Site
						{
							OFFSET 0.00 0.00 0.00
						}
					}
					End Site
					{
						OFFSET 0.00 0.00 0.00
					}
				}
					JOINT RightArm
					{
						OFFSET -10.00 0.00 0.00
						CHANNELS 3 Zrotation Xrotation Yrotation
						JOINT RightForeArm
						{
							OFFSET -20.00 0.00 0.00
							CHANNELS 3 Zrotation Xrotation Yrotation
							JOINT RightHand
							{
								OFFSET -20.00 0.00 0.00
								CHANNELS 3 Zrotation Xrotation Yrotation
							End Site
							{
								OFFSET 0.00 0.00 0.00
							}
						}
						End Site
						{
							OFFSET 0.00 0.00 0.00
						}
					}
					End Site
					{
						OFFSET 0.00 0.00 0.00
					}
				}
				End Site
				{
					OFFSET 0.00 0.00 0.00
				}
			}
			End Site
			{
				OFFSET 0.00 0.00 0.00
			}
		}
		End Site
		{
			OFFSET 0.00 0.00 0.00
		}
	}
		JOINT LeftUpLeg
		{
			OFFSET 5.00 -10.00 0.00
			CHANNELS 3 Zrotation Xrotation Yrotation
			JOINT LeftLeg
			{
				OFFSET 0.00 -20.00 0.00
				CHANNELS 3 Zrotation Xrotation Yrotation
				JOINT LeftFoot
				{
					OFFSET 0.00 -20.00 0.00
					CHANNELS 3 Zrotation Xrotation Yrotation
					JOINT LeftToeBase
					{
						OFFSET 0.00 -5.00 5.00
						CHANNELS 3 Zrotation Xrotation Yrotation
					End Site
					{
						OFFSET 0.00 0.00 0.00
					}
				}
				End Site
				{
					OFFSET 0.00 0.00 0.00
				}
			}
			End Site
			{
				OFFSET 0.00 0.00 0.00
			}
		}
		End Site
		{
			OFFSET 0.00 0.00 0.00
		}
	}
		JOINT RightUpLeg
		{
			OFFSET -5.00 -10.00 0.00
			CHANNELS 3 Zrotation Xrotation Yrotation
			JOINT RightLeg
			{
				OFFSET 0.00 -20.00 0.00
				CHANNELS 3 Zrotation Xrotation Yrotation
				JOINT RightFoot
				{
					OFFSET 0.00 -20.00 0.00
					CHANNELS 3 Zrotation Xrotation Yrotation
					JOINT RightToeBase
					{
						OFFSET 0.00 -5.00 5.00
						CHANNELS 3 Zrotation Xrotation Yrotation
					End Site
					{
						OFFSET 0.00 0.00 0.00
					}
				}
				End Site
				{
					OFFSET 0.00 0.00 0.00
				}
			}
			End Site
			{
				OFFSET 0.00 0.00 0.00
			}
		}
		End Site
		{
			OFFSET 0.00 0.00 0.00
		}
	}
	End Site
	{
		OFFSET 0.00 0.00 0.00
	}
}
MOTION
Frames: 17
Frame Time: 0.034483
6.0604 -0.2689 -1.8550 176.3626 155.2678 -16.4816 -9.2207 2.3743 -0.1915 -9.2207 2.3743 -0.1915 74.9643 -6.7144 -5.1512 29.1595 44.8496 12.2531 -39.2767 -72.5005 29.3252 -76.3944 3.2429 4.1208 -69.7969 -3.4041 -4.8784 -88.2771 -49.7882 -51.1169 68.1683 -1.2675 1.8731 56.2012 -14.5979 26.9779 158.6216 -150.8799 72.0135 2.9762 0.0382 0.0010 4.5647 23.0514 0.9313 -23.8848 23.8941 -5.1249 -0.6958 7.3711 10.7705 2.4211 4.7168 0.0997 -9.8448 21.2066 -1.8474 -10.8576 -36.4985 3.5897 -0.0788 -0.5302 -16.9059
6.0828 -0.2604 -1.6121 176.4821 152.4626 -14.2860 -8.1267 3.0977 -0.2201 -8.1267 3.0977 -0.2201 76.0728 -8.9088 -6.9749 28.8876 45.1797 12.2333 -38.5907 -73.2558 29.1779 -77.0211 2.8834 3.6231 -69.1260 -2.2739 -3.3003 -106.5395 -58.7908 -45.6021 72.4078 -1.6595 2.2669 68.1350 -17.4090 25.5142 143.8932 -126.2213 65.4642 3.1376 0.4371 0.0120 5.1475 23.8352 1.0871 -24.3492 24.0487 -5.2622 -0.6827 9.8931 7.8757 2.7667 6.1975 0.1498 -10.0267 21.4586 -1.9046 -11.5328 -35.9516 3.7532 0.0880 0.5720 -17.4896
6.0998 -0.2435 -1.4828 176.6714 151.6069 -13.1043 -7.2695 4.2083 -0.2674 -7.2695 4.2083 -0.2674 76.5636 -10.7761 -8.5144 29.0117 45.9175 12.5096 -38.2195 -72.7107 28.6138 -78.0452 3.4236 4.2238 -70.9237 -1.0351 -1.4532 -90.2417 -38.4835 -38.3333 80.2095 -2.7281 3.2390 74.4799 -18.6267 24.3491 144.0883 -122.1875 60.8171 3.1460 0.9367 0.0257 5.0977 24.9032 1.1263 -23.9952 24.8145 -5.3535 -0.6170 8.3906 8.3969 3.0403 7.2609 0.1929 -10.3800 20.8328 -1.9132 -12.2361 -36.3046 4.0254 0.1168 0.7474 -17.7613
6.1733 -0.2140 -1.5234 177.0159 154.8360 -13.3125 -6.6043 4.1220 -0.2379 -6.6043 4.1220 -0.2379 78.2180 -9.1520 -7.4454 28.5783 48.0662 12.9591 -35.1789 -73.1157 26.4573 -77.5452 3.8949 4.8480 -76.1293 -1.3611 -1.7380 -105.9121 -43.2236 -33.2943 84.9370 -3.2834 3.5869 80.9621 -21.1095 24.6298 150.3597 -126.1036 54.9890 3.3081 1.1562 0.0334 6.0224 25.2421 1.3497 -23.5997 24.7724 -5.2536 -0.4403 9.8938 5.0832 3.1221 6.7704 0.1847 -10.9458 20.6117 -1.9962 -13.1493 -35.6596 4.2460 0.0276 0.1725 -18.2151
6.2685 -0.1972 -1.5131 177.2524 156.2689 -13.0236 -6.4945 4.7025 -0.2670 -6.4945 4.7025 -0.2670 78.5267 -10.0323 -8.2076 29.7426 50.1983 14.1806 -35.6734 -68.3421 24.6440 -77.3967 4.5470 5.6742 -81.0371 -0.9612 -1.1246 -114.9723 -44.5859 -29.2911 86.8467 -3.5309 3.7306 83.4531 -20.3717 22.7821 151.7983 -125.7776 52.2696 3.6033 0.6098 0.0192 6.3571 25.3023 1.4283 -23.3431 23.8909 -5.0048 -0.5552 10.6884 5.9293 3.0864 6.8440 0.1846 -10.9345 20.1776 -1.9513 -13.0577 -35.5741 4.2055 -0.1437 -0.7791 -20.9042
6.3513 -0.1823 -1.4867 177.4573 157.3103 -12.6242 -6.1852 7.0529 -0.3815 -6.1852 7.0529 -0.3815 78.3823 -11.4092 -9.3125 30.3180 52.4420 15.2008 -33.9633 -65.6453 22.2863 -78.2889 7.0470 8.6520 -84.8394 1.1963 1.3092 -120.3788 -44.9929 -26.6968 88.2081 -2.5821 2.6641 83.6917 -19.5081 21.7321 147.1690 -118.4104 52.6077 4.2881 -0.0499 -0.0019 6.0576 25.1345 1.3516 -23.7470 23.0378 -4.9070 -0.5447 12.2476 5.0738 2.9589 6.4972 0.1680 -10.6097 20.0746 -1.8831 -12.7955 -35.2920 4.0855 -0.0500 -0.2569 -22.0141
6.4067 -0.1567 -1.4999 177.7190 159.5924 -12.6229 -5.5346 8.0808 -0.3912 -5.5346 8.0808 -0.3912 79.6240 -9.1136 -7.6013 30.5804 54.0873 15.8897 -33.0595 -64.4020 21.1727 -80.9345 8.3233 9.7502 -86.4500 2.2930 2.4397 -120.4833 -44.4176 -26.2780 89.2545 -2.9172 2.9554 82.3014 -16.3932 18.7191 146.3621 -117.3686 52.8414 4.4070 -0.0894 -0.0034 5.8795 25.1597 1.3131 -23.7986 22.8093 -4.8679 -0.4854 11.7393 4.7185 2.7572 6.2656 0.1509 -10.4405 20.0749 -1.8529 -12.5729 -36.3493 4.1424 -0.1741 -0.8976 -21.9481
6.4634 -0.1250 -1.5758 178.0315 163.0389 -13.1455 -5.0793 7.9179 -0.3517 -5.0793 7.9179 -0.3517 80.5576 -6.7798 -5.7472 29.8622 55.3866 15.9347 -30.6550 -65.8942 20.1452 -80.6627 7.7872 9.1667 -85.4555 3.2659 3.5356 -120.2267 -41.1633 -24.3566 90.3028 -4.1126 4.0910 82.2974 -15.7570 17.9967 145.0274 -114.4633 52.1573 4.5216 -0.1737 -0.0069 5.8219 25.2559 1.3054 -23.8394 22.9844 -4.9150 -0.4601 11.6647 4.5018 2.4604 6.2725 0.1348 -10.4253 19.4061 -1.7874 -12.6403 -36.8409 4.2251 -0.2973 -1.5118 -22.2524
6.5184 -0.1024 -1.6564 178.2449 165.4739 -13.7068 -5.0656 7.7823 -0.3448 -5.0656 7.7823 -0.3448 80.6525 -6.8942 -5.8542 30.0441 55.1423 15.9532 -30.5238 -66.3623 20.2328 -79.4285 7.7977 9.3812 -85.2619 2.4866 2.7011 -120.5577 -41.8325 -24.6161 90.6213 -4.6281 4.5782 82.5789 -16.9225 19.2284 148.1926 -120.6920 53.1727 4.6342 -0.3318 -0.0134 6.3999 25.1467 1.4288 -23.5164 23.0174 -4.8536 -0.3588 12.3222 3.3226 2.5069 5.9609 0.1305 -10.3809 18.8760 -1.7302 -12.5255 -36.8926 4.1928 -0.3621 -1.9284 -21.2688
6.5191 -0.0874 -1.6594 178.3742 166.5562 -13.7289 -5.0261 7.7595 -0.3411 -5.0261 7.7595 -0.3411 80.7287 -6.8411 -5.8168 29.6196 55.1600 15.7261 -30.0498 -67.7124 20.4157 -78.5589 7.5191 9.1867 -85.7585 1.7444 1.8785 -117.8990 -39.4572 -24.3672 90.9643 -4.8048 4.7247 81.8596 -17.2857 19.8848 145.2384 -116.9360 54.0568 4.5868 -0.3111 -0.0125 6.3678 25.5649 1.4461 -23.3834 23.7092 -4.9745 -0.3918 12.8037 3.4911 2.5313 5.8574 0.1295 -10.3293 18.8431 -1.7185 -12.6594 -37.0240 4.2541 -0.4122 -2.2104 -21.1229
6.5133 -0.0717 -1.7439 178.5168 168.3370 -14.4462 -4.7654 7.0741 -0.2947 -4.7654 7.0741 -0.2947 80.8504 -5.7534 -4.9020 28.7313 55.9709 15.5003 -28.8184 -68.6302 19.8929 -77.9464 8.3947 10.3668 -85.2371 1.3718 1.4908 -118.1393 -38.7514 -23.7995 91.0734 -5.1530 5.0575 81.1072 -17.4005 20.2782 145.2721 -117.4746 54.5006 4.5344 1.0216 0.0404 6.3465 26.3902 1.4894 -23.2256 24.6413 -5.1399 -0.4500 14.0096 3.6615 2.5551 6.0080 0.1341 -10.3090 18.9398 -1.7241 -12.6988 -36.9865 4.2628 -0.3764 -2.0164 -21.1436
6.5102 -0.0570 -1.8627 178.6407 169.9889 -15.4267 -4.5196 6.4863 -0.2562 -4.5196 6.4863 -0.2562 81.1430 -4.0903 -3.5027 28.1265 56.1469 15.2200 -27.8791 -68.9162 19.3319 -77.4402 8.0885 10.0796 -84.9662 0.0814 0.0889 -119.0134 -40.4225 -24.4648 91.2203 -6.4804 6.3441 80.2708 -18.4154 21.7659 147.0539 -121.6517 55.8164 4.3353 2.1977 0.0832 6.5118 27.3633 1.5868 -22.9637 25.6349 -5.2919 -0.4558 15.0832 3.4420 2.5619 6.2904 0.1408 -10.2448 19.1356 -1.7313 -12.6987 -36.8647 4.2477 -0.3606 -1.9106 -21.3733
6.5151 -0.0481 -1.8682 178.7161 170.5617 -15.4583 -4.3582 6.3255 -0.2409 -4.3582 6.3255 -0.2409 81.1444 -3.9887 -3.4157 27.8579 55.4070 14.8395 -27.7046 -69.8774 19.5491 -77.3323 7.7174 9.6364 -84.2646 -0.0698 -0.0772 -119.4392 -41.0027 -24.6316 91.4521 -6.4762 6.3144 79.6863 -18.4623 22.0428 146.7719 -121.4446 56.0431 4.2267 2.4195 0.0893 6.6372 27.9004 1.6504 -22.9161 26.0061 -5.3597 -0.4497 16.1420 3.1703 2.4799 6.4220 0.1391 -10.1578 19.1157 -1.7147 -12.6762 -36.9336 4.2486 -0.3444 -1.8038 -21.6207
6.5194 -0.0444 -1.8683 178.7484 170.7908 -15.4468 -4.3876 6.0950 -0.2337 -4.3876 6.0950 -0.2337 81.1220 -3.9382 -3.3711 27.7660 54.1552 14.4031 -28.1422 -71.1750 20.3372 -77.5760 7.5284 9.3601 -83.7738 -0.2926 -0.3263 -119.1338 -40.5121 -24.4650 91.6673 -6.5750 6.3868 79.1281 -18.5187 22.3243 146.6180 -121.9781 56.7991 4.2065 2.3879 0.0877 6.6636 28.7903 1.7121 -22.7788 27.0975 -5.5583 -0.4857 18.1005 3.0487 2.4690 6.5002 0.1402 -10.1161 19.3520 -1.7292 -12.7144 -36.6256 4.2235 -0.2830 -1.4606 -21.9324
6.5318 -0.0428 -1.8811 178.7648 170.9526 -15.5168 -4.4218 5.9291 -0.2291 -4.4218 5.9291 -0.2291 81.1759 -3.7210 -3.1883 27.6360 53.6987 14.1945 -28.1903 -71.7123 20.5709 -77.8048 7.4999 9.2868 -83.4798 -0.4277 -0.4793 -118.7072 -39.8337 -24.2323 91.9117 -6.6487 6.4309 78.7817 -18.7337 22.7173 145.4110 -120.4885 57.1489 4.1906 2.3445 0.0858 6.6651 29.2934 1.7438 -22.7236 27.6332 -5.6583 -0.5374 19.5898 3.1119 2.4542 6.5982 0.1415 -10.0389 20.2876 -1.8006 -12.8682 -35.5635 4.1426 -0.1088 -0.5494 -22.4018
6.5259 -0.0392 -1.9021 178.7968 171.2877 -15.6963 -4.4569 5.7599 -0.2243 -4.4569 5.7599 -0.2243 81.3237 -3.3953 -2.9168 27.5043 53.2178 13.9796 -28.3241 -72.2659 20.8769 -77.9207 7.2439 8.9519 -83.6672 -0.6269 -0.7004 -119.6178 -40.4509 -24.1972 92.4214 -6.9230 6.6371 78.4473 -18.9569 23.1192 144.1983 -119.3486 57.8143 4.1931 2.3115 0.0846 6.6427 29.7615 1.7669 -22.5849 28.1489 -5.7319 -0.6646 19.6767 3.8312 2.4710 6.8747 0.1484 -9.9776 21.0915 -1.8620 -12.9731 -34.9669 4.1021 -0.0658 -0.3295 -22.5699
6.5287 -0.0362 -1.9418 178.8225 171.6406 -16.0079 -4.4813 5.2913 -0.2072 -4.4813 5.2913 -0.2072 81.4778 -2.5582 -2.2035 27.1663 53.3107 13.8305 -27.9145 -72.8346 20.7798 -77.8886 7.2883 9.0118 -84.3223 -1.1106 -1.2264 -121.7689 -41.1170 -23.5969 93.0492 -7.1227 6.7542 78.0339 -18.9203 23.2411 143.5821 -119.0245 58.3868 4.2580 2.2386 0.0832 6.6131 29.7165 1.7563 -22.6493 27.9659 -5.7098 -0.8321 19.3648 4.8740 2.5017 6.9435 0.1518 -9.9132 21.2259 -1.8620 -12.9470 -34.9519 4.0919 -0.0736 -0.3687 -22.5770
